# xmcd
#
# Track frame offsets:
#	150
#	10982
#	24731
#	35553
#	51926
#	70539
#	88401
#	100509
#	116155
#	127489
#	144615
#	166948
#	180341
#	203995
#	219952
#	230362
#	241894
#	256624
#
# Disc length: 3569 seconds
#
# Revision: 0
# Processed by: cddbd v1.5.2PL0 Copyright (c) Steve Scherf et al.
# Submitted via: audiograbber 1.83.01
#
DISCID=f90def12
DTITLE=Les Copeland - To Be In Your Company
DYEAR=2014
DGENRE=Blues
TTITLE0=To Be In Your Company
TTITLE1=Borderline
TTITLE2=Stealin'
TTITLE3=Why We Love Each Other
TTITLE4=Knucklehead
TTITLE5=Swamp Witch
TTITLE6=Something Nice And Sweet
TTITLE7=Winin' Boy Blues
TTITLE8=Friend
TTITLE9=If I Was a Bad Man
TTITLE10=Bessie
TTITLE11=Ribbon of Darkness
TTITLE12=Moonshiner
TTITLE13=Sunny Afternoon
TTITLE14=I'd Be Lonely Too
TTITLE15=I'm Just An Old Chunk Of Coal
TTITLE16=Crosstown
TTITLE17=I Dream About You
EXTD=
EXTT0=
EXTT1=
EXTT2=
EXTT3=
EXTT4=
EXTT5=
EXTT6=
EXTT7=
EXTT8=
EXTT9=
EXTT10=
EXTT11=
EXTT12=
EXTT13=
EXTT14=
EXTT15=
EXTT16=
EXTT17=
PLAYORDER=
